<?xml version="1.0" standalone="no"?>
<!DOCTYPE svg PUBLIC "-//W3C//DTD SVG 20010904//EN"
 "http://www.w3.org/TR/2001/REC-SVG-20010904/DTD/svg10.dtd">
<svg version="1.0" xmlns="http://www.w3.org/2000/svg"
 width="300.000000pt" height="300.000000pt" viewBox="0 0 300.000000 300.000000"
 preserveAspectRatio="xMidYMid meet">

<g transform="translate(0.000000,300.000000) scale(0.100000,-0.100000)"
fill="#000000" stroke="none">
<path d="M2195 2451 c-11 -5 -23 -6 -28 -4 -4 2 -6 0 -5 -6 2 -6 -9 -19 -24
-28 -14 -10 -64 -46 -110 -80 -182 -136 -222 -163 -242 -163 -11 0 -28 -4 -36
-10 -16 -10 -19 -9 137 -65 101 -37 157 -64 133 -65 -46 -1 -475 131 -649 200
-30 11 -60 19 -68 16 -11 -4 -13 -93 -13 -490 0 -266 3 -492 6 -501 4 -8 18
-22 33 -30 49 -25 762 -295 780 -295 10 0 177 61 372 136 195 75 370 142 389
148 l35 13 3 525 2 525 -24 11 c-45 20 -638 174 -663 171 -4 0 -17 -4 -28 -8z
m685 -177 c0 -16 -487 -185 -615 -214 -34 -7 -37 -7 -22 4 16 13 248 94 507
178 121 39 130 41 130 32z m-30 -222 c0 -15 -11 -97 -24 -182 -13 -85 -34
-225 -46 -310 -12 -85 -26 -164 -30 -176 -5 -12 -29 -28 -61 -41 -49 -18 -55
-19 -81 -4 -30 17 -36 42 -15 60 12 9 9 37 -14 163 -41 219 -39 216 -56 123
-8 -44 -26 -159 -41 -255 l-27 -175 -49 -23 c-27 -13 -54 -21 -60 -19 -6 3
-24 67 -39 143 -15 77 -32 140 -37 142 -5 2 -6 10 -3 18 3 10 0 12 -10 8 -8
-3 -18 -1 -21 5 -9 15 -67 304 -64 320 2 7 25 21 52 32 82 31 95 11 132 -191
4 -19 12 -41 18 -49 6 -8 11 -24 12 -35 0 -12 2 -34 3 -51 l3 -30 8 30 c12 49
11 85 -2 83 -9 -2 -13 10 -12 37 1 62 31 266 41 275 4 4 36 17 70 29 57 21 63
22 86 7 21 -14 28 -34 47 -129 24 -125 47 -217 55 -225 3 -3 5 -1 5 4 0 5 7
63 15 129 8 65 15 128 15 140 -1 20 -1 20 -16 0 -14 -18 -15 -15 -9 40 12 113
11 112 68 134 61 22 87 14 87 -27z m-1141 -62 c51 -26 105 -79 131 -129 23
-46 36 -106 20 -96 -6 4 -10 -4 -10 -19 0 -34 -10 -38 -60 -23 -38 11 -43 17
-58 62 -21 61 -68 97 -122 93 -33 -3 -35 -5 -38 -44 -2 -33 2 -48 24 -73 47
-56 202 -150 178 -108 -4 7 5 1 20 -13 134 -121 152 -350 30 -390 -50 -17
-150 -8 -199 18 -50 26 -107 84 -134 139 -24 49 -54 169 -46 183 9 15 50 12
95 -6 37 -15 54 -34 30 -34 -14 0 -13 -27 2 -36 8 -5 9 -2 4 12 -12 32 3 9 32
-47 39 -78 128 -129 146 -83 23 59 3 88 -166 236 -96 85 -122 134 -123 235 0
57 4 77 21 100 41 55 140 66 223 23z m400 -526 c1 -310 -5 -474 -18 -472 -3 1
-14 -2 -24 -7 -12 -5 -56 9 -140 44 -67 29 -130 58 -140 65 -21 16 -13 43 14
51 10 4 19 11 19 17 0 5 6 8 14 5 8 -3 16 -3 18 1 4 9 111 80 148 99 8 4 21
13 29 21 7 7 19 11 26 8 17 -6 25 59 25 203 0 64 3 181 7 261 11 220 21 94 22
-296z"/>
<path d="M570 1934 c-59 -12 -100 -25 -100 -33 0 -4 54 -11 121 -14 127 -6
191 -25 197 -59 9 -46 -105 -188 -219 -275 -27 -20 -47 -39 -45 -41 6 -5 141
64 190 97 56 39 134 124 152 166 31 75 10 123 -63 145 -42 13 -194 21 -233 14z"/>
<path d="M315 1430 c-58 -12 -99 -29 -91 -38 4 -4 71 -9 149 -12 195 -8 231
-28 203 -111 -31 -89 -112 -171 -243 -244 -61 -35 -97 -43 -108 -25 -6 10 33
93 101 211 24 42 44 81 44 87 0 28 -32 8 -68 -40 -79 -109 -211 -342 -199
-354 10 -11 147 31 234 71 158 73 275 172 327 277 63 126 5 179 -199 184 -60
2 -128 -1 -150 -6z"/>
<path d="M927 946 c-7 -19 1 -26 30 -26 16 0 23 6 23 20 0 14 -7 20 -24 20
-13 0 -26 -6 -29 -14z"/>
<path d="M504 911 c-29 -13 -46 -63 -33 -98 6 -16 30 -43 55 -61 33 -25 44
-39 42 -55 -4 -30 -42 -30 -46 1 -3 17 -10 22 -33 22 -24 0 -29 -4 -29 -23 0
-58 61 -89 123 -63 28 11 37 22 42 48 9 48 -8 82 -57 115 -48 32 -64 73 -29
73 11 0 25 -9 31 -21 17 -30 56 -22 52 11 -1 14 -8 31 -16 38 -16 17 -75 24
-102 13z"/>
<path d="M830 770 l0 -140 30 0 30 0 0 140 0 140 -30 0 -30 0 0 -140z"/>
<path d="M1110 871 l0 -40 -36 6 c-52 8 -64 -12 -64 -104 0 -60 4 -77 20 -93
24 -24 29 -24 58 -4 12 8 22 10 22 5 0 -6 11 -11 25 -11 l25 0 0 140 0 140
-25 0 c-22 0 -25 -4 -25 -39z m-5 -102 c9 -41 -2 -99 -20 -99 -17 0 -29 52
-21 96 8 42 32 44 41 3z"/>
<path d="M1190 898 c0 -7 12 -70 26 -140 22 -105 30 -128 45 -128 18 0 21 9
50 160 7 36 16 69 19 73 4 4 17 -47 30 -113 18 -98 26 -120 40 -120 14 0 23
26 49 133 36 152 35 147 17 147 -9 0 -20 -37 -36 -119 -13 -66 -27 -118 -30
-116 -4 3 -15 51 -25 109 -20 115 -26 132 -48 123 -9 -3 -22 -45 -37 -121 -12
-64 -25 -114 -29 -111 -3 4 -15 57 -26 118 -12 61 -26 112 -33 115 -7 2 -12
-2 -12 -10z"/>
<path d="M1779 860 c-3 -146 1 -230 11 -230 6 0 10 17 10 39 0 21 6 44 14 50
14 12 23 2 55 -61 8 -16 21 -28 28 -28 10 0 5 17 -17 58 -16 31 -30 62 -30 69
0 6 12 26 26 43 15 17 23 34 19 38 -4 4 -14 -2 -23 -14 -10 -11 -29 -36 -44
-55 l-27 -34 -1 88 c0 92 -19 125 -21 37z"/>
<path d="M666 824 c-18 -18 -23 -143 -6 -173 19 -37 107 -34 132 3 4 6 8 43 8
82 0 56 -4 74 -18 87 -24 22 -95 22 -116 1z m79 -67 c8 -47 -2 -97 -20 -97
-18 0 -25 23 -25 79 0 46 16 79 32 63 4 -4 10 -24 13 -45z"/>
<path d="M930 735 l0 -105 25 0 25 0 0 105 0 105 -25 0 -25 0 0 -105z"/>
<path d="M1511 814 c-40 -51 -18 -183 31 -185 68 -4 90 20 92 98 1 77 -20 113
-69 113 -24 0 -39 -7 -54 -26z m89 -20 c17 -44 12 -112 -10 -134 -24 -24 -34
-25 -54 -4 -19 19 -22 134 -4 152 21 21 58 14 68 -14z"/>
<path d="M1670 735 c0 -87 3 -105 15 -105 12 0 15 15 15 78 0 64 4 82 18 95
10 10 24 17 30 17 7 0 12 5 12 10 0 15 -21 12 -42 -7 -17 -15 -18 -15 -18 0 0
10 -7 17 -15 17 -12 0 -15 -18 -15 -105z"/>
<path d="M1932 828 c-17 -17 -15 -63 3 -78 8 -7 30 -20 48 -29 35 -17 45 -44
27 -66 -18 -22 -47 -18 -64 7 -18 25 -36 16 -20 -9 24 -38 92 -33 114 7 18 33
2 59 -48 83 -37 17 -47 28 -47 46 0 34 40 47 63 21 18 -21 32 -26 32 -11 0 34
-81 56 -108 29z"/>
</g>
</svg>
